<svg width="38" height="39" viewBox="0 0 38 39" fill="none" xmlns="http://www.w3.org/2000/svg">
<path d="M18.8975 37.1406V22.5438C18.8975 21.6221 19.2636 20.7381 19.9154 20.0863C20.5672 19.4345 21.4512 19.0684 22.3729 19.0684C23.2946 19.0684 24.1786 19.4345 24.8304 20.0863C25.4822 20.7381 25.8483 21.6221 25.8483 22.5438V30.1898H31.409C32.8838 30.1898 34.2982 30.7756 35.3411 31.8185C36.3839 32.8613 36.9697 34.2757 36.9697 35.7505V37.1406" stroke="#017670" stroke-width="2" stroke-linecap="round" stroke-linejoin="round"/>
<path d="M10.1 8C10.0448 8 10 8.04477 10 8.1V8.9C10 8.95523 10.0448 9 10.1 9H12C12.8116 9 13.8661 9.47237 14.3001 10.3652C14.3309 10.4287 14.2828 10.5 14.2122 10.5H10.1C10.0448 10.5 10 10.5448 10 10.6V11.4C10 11.4552 10.0448 11.5 10.1 11.5H14.372C14.4319 11.5 14.4785 11.5524 14.4682 11.6114C14.2528 12.8445 12.958 13.5 12 13.5H10.1C10.0448 13.5 10 13.5448 10 13.6V14.6876C10 14.7173 10.0132 14.7455 10.036 14.7645L15.0972 18.9769C15.1152 18.9918 15.1378 19 15.1612 19H16.411C16.5046 19 16.5469 18.883 16.475 18.8231L11.4935 14.6769C11.4216 14.617 11.4639 14.5 11.5575 14.5H12C13.5893 14.5 15.2791 13.3455 15.4756 11.5921C15.4814 11.5403 15.5246 11.5 15.5767 11.5H17.9C17.9552 11.5 18 11.4552 18 11.4V10.6C18 10.5448 17.9552 10.5 17.9 10.5H15.4836C15.438 10.5 15.3982 10.469 15.3858 10.425C15.2506 9.94913 15.0026 9.53101 14.6784 9.17957C14.6169 9.11292 14.6625 9 14.7532 9H17.9C17.9552 9 18 8.95523 18 8.9V8.1C18 8.04477 17.9552 8 17.9 8H10.1Z" fill="#017670" stroke="#017670" stroke-width="0.4"/>
<path d="M13.5961 26.1956C11.0308 26.1952 8.52686 25.4118 6.4189 23.95C4.31094 22.4882 2.69947 20.4177 1.79994 18.0154C0.900416 15.613 0.755701 12.9934 1.38515 10.5066C2.0146 8.01978 3.38821 5.7844 5.32233 4.09932C7.25645 2.41424 9.65889 1.35975 12.2085 1.07685C14.758 0.793956 17.3332 1.29613 19.5897 2.51623C21.8462 3.73632 23.6764 5.6162 24.8357 7.90451C25.995 10.1928 26.4281 12.7805 26.0771 15.3216" stroke="#017670" stroke-width="2" stroke-linecap="round"/>
</svg>
