<svg width="35" height="35" viewBox="0 0 35 35" fill="none" xmlns="http://www.w3.org/2000/svg">
<path d="M5.125 17.5C4.03098 17.5 2.98177 17.0654 2.20818 16.2918C1.4346 15.5182 1 14.469 1 13.375C1 12.281 1.4346 11.2318 2.20818 10.4582C2.98177 9.6846 4.03098 9.25 5.125 9.25M5.125 17.5C6.21902 17.5 7.26823 17.0654 8.04182 16.2918C8.8154 15.5182 9.25 14.469 9.25 13.375C9.25 12.281 8.8154 11.2318 8.04182 10.4582C7.26823 9.6846 6.21902 9.25 5.125 9.25M5.125 17.5V34M5.125 9.25V1M17.5 29.875C16.406 29.875 15.3568 29.4404 14.5832 28.6668C13.8096 27.8932 13.375 26.844 13.375 25.75C13.375 24.656 13.8096 23.6068 14.5832 22.8332C15.3568 22.0596 16.406 21.625 17.5 21.625M17.5 29.875C18.594 29.875 19.6432 29.4404 20.4168 28.6668C21.1904 27.8932 21.625 26.844 21.625 25.75C21.625 24.656 21.1904 23.6068 20.4168 22.8332C19.6432 22.0596 18.594 21.625 17.5 21.625M17.5 29.875V34M17.5 21.625V1M29.875 11.3125C28.781 11.3125 27.7318 10.8779 26.9582 10.1043C26.1846 9.33073 25.75 8.28152 25.75 7.1875C25.75 6.09348 26.1846 5.04427 26.9582 4.27068C27.7318 3.4971 28.781 3.0625 29.875 3.0625M29.875 11.3125C30.969 11.3125 32.0182 10.8779 32.7918 10.1043C33.5654 9.33073 34 8.28152 34 7.1875C34 6.09348 33.5654 5.04427 32.7918 4.27068C32.0182 3.4971 30.969 3.0625 29.875 3.0625M29.875 11.3125V34M29.875 3.0625V1" stroke="#017670" stroke-width="2" stroke-linecap="round" stroke-linejoin="round"/>
</svg>
