<svg width="37" height="37" viewBox="0 0 37 37" fill="none" xmlns="http://www.w3.org/2000/svg">
<path d="M22.2064 21.1083C21.167 22.2931 19.9014 23.2625 18.4769 23.9653V28.0045C18.4769 28.3616 18.3351 28.7041 18.0826 28.9566C17.8301 29.2091 17.4876 29.3509 17.1305 29.3509H9.05218C8.69509 29.3509 8.35263 29.2091 8.10014 28.9566C7.84764 28.7041 7.70579 28.3616 7.70579 28.0045V23.9653C4.86852 22.5491 2.69947 20.0771 1.6641 17.0798C0.628729 14.0825 0.809549 10.7988 2.16776 7.93333C3.52596 5.06784 5.95332 2.84895 8.92893 1.75281C11.9045 0.656681 15.1913 0.770661 18.0838 2.07029M7.70579 35.9994H18.4769" stroke="#017670" stroke-width="2" stroke-linecap="round" stroke-linejoin="round"/>
<path d="M19.4804 10.2507C18.5352 10.0865 18.5352 8.72931 19.4804 8.56505C21.1533 8.27243 22.7015 7.48894 23.928 6.3142C25.1545 5.13945 26.004 3.62651 26.3685 1.96773L26.4251 1.70384C26.6297 0.769439 27.9599 0.764054 28.1727 1.69576L28.2427 2.00004C28.6188 3.65241 29.4753 5.15661 30.7043 6.32334C31.9333 7.49008 33.48 8.26722 35.1497 8.55698C36.1002 8.72393 36.1002 10.0865 35.1497 10.2534C33.4805 10.5437 31.9344 11.321 30.7059 12.4877C29.4774 13.6544 28.6213 15.1584 28.2454 16.8104L28.1754 17.1147C27.9626 18.0464 26.6324 18.041 26.4278 17.1066L26.3739 16.8454C26.0091 15.1859 25.1588 13.6724 23.9312 12.4976C22.7036 11.3228 21.1543 10.5424 19.4804 10.2507Z" stroke="#017670" stroke-width="2" stroke-linecap="round" stroke-linejoin="round"/>
</svg>
